<?xml version="1.0" encoding="UTF-8"?>
<svg id="Layer_1" data-name="Layer 1" xmlns="http://www.w3.org/2000/svg" viewBox="0 0 726.41 88.17">
  <defs>
    <style>
      .cls-1 {
        fill: #42454a;
      }

      .cls-2 {
        fill: #557e9b;
      }

      .cls-3 {
        fill: #ed8d35;
      }
    </style>
  </defs>
  <g>
    <path class="cls-2" d="M78.69,24.33v42h-15.54v-26.76l-12.78,26.76h-4.44l-12.72-26.58v26.58h-7.08V24.33h17.34l9.54,20.22,9.48-20.22h16.2Z"/>
    <path class="cls-2" d="M108.81,60.69h-15.6l-2.46,5.64h-7.74l18.12-42h8.94l18.12,42h-16.98l-2.4-5.64ZM105.93,53.91l-4.86-11.46-4.98,11.46h9.84Z"/>
    <path class="cls-2" d="M150.99,31.11v35.22h-15.54V31.11h-12.54l2.64-6.78h35.34l2.64,6.78h-12.54Z"/>
    <path class="cls-2" d="M194.67,48.21v18.12h-15.48v-18l-14.94-24h18.48l9.18,14.76,9.18-14.76h8.34l-14.76,23.88Z"/>
    <path class="cls-2" d="M228.93,60.69h-15.6l-2.46,5.64h-7.74l18.12-42h8.94l18.12,42h-16.98l-2.4-5.64ZM226.05,53.91l-4.86-11.46-4.98,11.46h9.84Z"/>
    <path class="cls-2" d="M250.11,61.35l3.96-5.94h1.02c3.18,2.7,7.2,4.86,13.02,4.86,3.96,0,6.18-1.32,6.18-3.72,0-6.42-22.14-3.78-22.08-18.48.06-8.34,6.54-14.46,19.44-14.46,5.64,0,11.64,1.38,15.3,4.14l-3.36,6.18h-1.02c-2.4-2.1-6.48-3.54-10.92-3.54-3.84,0-5.82.96-5.82,2.82,0,5.4,23.7,3,23.7,19.02,0,10.32-9.42,14.82-21.06,14.82-7.44,0-14.58-2.22-18.36-5.7Z"/>
    <path class="cls-3" d="M365.24,24.33l-14.4,42h-9.12l-5.58-16.5-5.64,16.5h-9.12l-14.52-42h16.62l7.02,20.22,6.96-20.22h6.36l6.96,20.16,6.9-20.16h7.56Z"/>
    <path class="cls-3" d="M369.63,24.33h31.5l2.64,6.78h-18.72v9.84h13.2v6.78h-13.2v11.82h20.22l-2.64,6.78h-33V24.33Z"/>
    <path class="cls-3" d="M452.48,54.81c0,8.88-7.14,11.52-20.76,11.52h-21.24V24.33h20.76c11.82,0,18.9,2.64,18.9,10.92,0,4.98-3.06,7.62-8.1,8.94,6.78,1.38,10.44,4.56,10.44,10.62ZM425.96,40.95h5.28c2.4,0,3.6-1.5,3.6-3.72v-2.22c0-2.28-1.26-3.9-3.6-3.9h-5.28v9.84ZM436.16,52.11c0-2.88-1.74-4.38-4.44-4.38h-5.76v11.82h5.76c2.7,0,4.44-1.44,4.44-4.32v-3.12Z"/>
    <path class="cls-1" d="M470.42,61.35l3.96-5.94h1.02c3.18,2.7,7.2,4.86,13.02,4.86,3.96,0,6.18-1.32,6.18-3.72,0-6.42-22.14-3.78-22.08-18.48.06-8.34,6.54-14.46,19.44-14.46,5.64,0,11.64,1.38,15.3,4.14l-3.36,6.18h-1.02c-2.4-2.1-6.48-3.54-10.92-3.54-3.84,0-5.82.96-5.82,2.82,0,5.4,23.7,3,23.7,19.02,0,10.32-9.42,14.82-21.06,14.82-7.44,0-14.58-2.22-18.36-5.7Z"/>
    <path class="cls-1" d="M537.08,31.11v35.22h-15.54V31.11h-12.54l2.64-6.78h35.34l2.64,6.78h-12.54Z"/>
    <path class="cls-1" d="M591.92,52.77c0,7.62-3.96,14.28-18.06,14.28s-19.86-6.18-19.86-14.4v-28.32h15.48v29.16c0,4.8,3.18,6.78,7.38,6.78,4.44,0,7.98-1.98,7.98-6.78v-29.16h7.08v28.44Z"/>
    <path class="cls-1" d="M619.58,24.33c13.74,0,22.2,6.36,22.2,21s-8.46,21-22.2,21h-20.7V24.33h20.7ZM614.36,31.17v28.26h5.16c3.6,0,5.94-1.2,5.94-7.38v-13.74c0-5.58-2.34-7.14-5.94-7.14h-5.16Z"/>
    <path class="cls-1" d="M647,24.33h15.48v42h-15.48V24.33Z"/>
    <path class="cls-1" d="M667.64,45.33c0-13.98,8.94-21.72,22.5-21.72s22.5,7.74,22.5,21.72-8.88,21.72-22.5,21.72-22.5-7.74-22.5-21.72ZM696.5,55.89v-21.18c0-2.76-2.34-4.32-6.36-4.32s-6.3,1.56-6.3,4.32v21.24c0,2.7,2.34,4.32,6.3,4.32s6.36-1.62,6.36-4.38Z"/>
  </g>
  <rect class="cls-1" width="726.41" height="7.03"/>
  <rect class="cls-1" y="81.14" width="726.41" height="7.03"/>
</svg>