<?xml version="1.0" encoding="UTF-8"?>
<svg id="Layer_1" data-name="Layer 1" xmlns="http://www.w3.org/2000/svg" xmlns:xlink="http://www.w3.org/1999/xlink" viewBox="0 0 940 260">
  <defs>
    <style>
      .cls-1 {
        fill: #cdcdce;
      }

      .cls-2 {
        fill: #c9c9ca;
      }

      .cls-3 {
        fill: url(#linear-gradient-2);
      }

      .cls-4 {
        fill: #0f1012;
      }

      .cls-5 {
        fill: url(#linear-gradient);
      }

      .cls-6 {
        fill: #cacacc;
      }

      .cls-7 {
        fill: #cdcccd;
      }

      .cls-8 {
        fill: #2d7dc9;
      }

      .cls-9 {
        fill: #c4c4c6;
      }

      .cls-10 {
        fill: #c9c9cb;
      }

      .cls-11 {
        fill: #f7f7f7;
      }

      .cls-12 {
        fill: #c4c4c5;
      }

      .cls-13 {
        fill: #111114;
      }

      .cls-14 {
        fill: #121216;
      }

      .cls-15 {
        fill: #1a1a1d;
      }

      .cls-16 {
        fill: #121315;
      }

      .cls-17 {
        fill: #cac9cb;
      }

      .cls-18 {
        fill: #0f1013;
      }

      .cls-19 {
        fill: #fdfdfd;
      }

      .cls-20 {
        fill: #e6e4e4;
      }

      .cls-21 {
        fill: #e7e5e5;
      }
    </style>
    <linearGradient id="linear-gradient" x1="518.82" y1="673.77" x2="702.94" y2="691.8" gradientTransform="translate(-468 -612)" gradientUnits="userSpaceOnUse">
      <stop offset="0" stop-color="#cacacd"/>
      <stop offset="1" stop-color="#fbfbfb"/>
    </linearGradient>
    <linearGradient id="linear-gradient-2" x1="634.11" y1="780.91" x2="520.19" y2="785.22" gradientTransform="translate(-468 -612)" gradientUnits="userSpaceOnUse">
      <stop offset="0" stop-color="#dddcde"/>
      <stop offset=".25" stop-color="#c9c9cb"/>
      <stop offset="1" stop-color="#b6b7bb"/>
    </linearGradient>
  </defs>
  <rect class="cls-18" width="940" height="260"/>
  <g>
    <path class="cls-17" d="M492.17,191.12c-4.66,1.13-8.66-.16-13.13.68-.61,1.7-1.18,5.75.19,7.17l15.36.87c.68.13.74,2.69.11,3.54l-20.86.05-.07-27.53c6.74-.22,13.19-.54,20.32.27,1.31.15.93,3.39-.4,3.6-4.77.75-10.07-.82-14.47.78-1.4.56-1.3,5.67.09,6.21,3.64,1.01,8.5.1,12.85.62.93.11,1.07,3.47,0,3.73Z"/>
    <path class="cls-6" d="M666.4,199.65c14.85-.76.64-29.24,11.85-23.44.61,4.77.16,10.82.22,15.94.1,8.03-6.04,12.24-13.52,11.94-6.93-.28-12.22-4.37-11.96-11.84.18-5.11-.51-10.69.3-15.84.17-1.09,4.13-1.12,4.3-.03.79,5.17.03,10.63.39,15.77s3.95,7.74,8.42,7.51Z"/>
    <path class="cls-7" d="M592.04,203.15c-5.71,1.66-11.98,1.05-16.69-2.24-1.03-.72,1.05-4.31,2.32-3.71,6.27,2.97,15.14,4.34,15.07-1.39-.08-6.15-18.8-1.3-16.65-13.74,1.32-7.61,14.29-8.05,20.3-4.31.61.67-.58,3.63-1.49,3.5-2.12-.3-12.84-3.92-13.87,1.73-.23,1.27.7,2.77,2.24,3.18l8.62,2.31c3.48.93,5.45,3.54,5.72,6.47.33,3.56-1.23,6.94-5.55,8.2Z"/>
    <path class="cls-9" d="M626.74,202.78c-.02,1.25-4.42,1.24-4.6.24l-.66-22.61c-2.74-.88-5.44-.09-8.36-.7-1.25-.26-1.26-3.66.01-3.72,7.71-.36,14.91-.43,22.6-.02.98.05,1.1,3.17.33,3.53-2.71,1.27-5.92-.1-9.04.92l-.28,22.37Z"/>
    <rect class="cls-20" x="348.86" y="153.09" width="2.48" height="69.37" transform="translate(162.05 537.72) rotate(-89.95)"/>
    <rect class="cls-21" x="823.39" y="186.54" width="64.04" height="2.34"/>
    <rect class="cls-12" x="742.11" y="175.76" width="4.88" height="27.82" transform="translate(-.21 .84) rotate(-.06)"/>
    <g>
      <path class="cls-1" d="M533.18,189c2.98,2.06,4.43,4.51,4.05,7.8-1.06,9.26-16.58,6.52-24.52,6.62l-.13-27.46c6.29.17,20.49-2.39,22.7,4.31,1.04,3.16.65,6.09-2.09,8.74Z"/>
      <path class="cls-15" d="M532.11,194.9c.89,6.07-9.77,4.88-14.14,4.49-.77-2.85-.78-5.19.05-7.77,4.7.23,13.37-1.68,14.09,3.29Z"/>
      <path class="cls-13" d="M530.89,183.78c.05,4.76-8.87,3.79-12.81,3.42-.88-2.39-.83-4.44-.05-6.93,4.62-.32,12.81-1.64,12.86,3.51Z"/>
    </g>
    <g>
      <path class="cls-2" d="M782.21,203.95c-9.69,1.41-17.13-4.51-17.62-13.09-.52-9.11,5.86-15.56,15.32-15.45,7.98.09,14.29,4.94,15.12,12.4.88,7.93-4.21,14.89-12.82,16.14Z"/>
      <circle class="cls-14" cx="779.73" cy="189.75" r="10.2"/>
    </g>
    <g>
      <path class="cls-2" d="M710.46,203.53c-4.46.06-8.4.29-12.67-.25l-.07-27.23c4.01-.54,8.03-.14,12.18-.21,8.38-.14,14.55,5.21,14.85,12.94s-4.96,14.63-14.29,14.74Z"/>
      <path class="cls-4" d="M715.25,198.08c-4.08,2.12-8.89,1.97-12.71.73l-.05-18.48c4.16-.63,8.54-.78,12.49.94,3.22,1.4,4.49,4.79,4.7,7.66.25,3.34-.71,7.21-4.44,9.15Z"/>
    </g>
    <g>
      <path class="cls-10" d="M442.95,202.89l-7.58-18.87-7.27,18.66c-.49,1.25-4.86,1.62-5.38.23l-9.91-26.45c1.27-.72,4.48-1.31,4.99-.05l7.87,19.29,7.54-19.77c1.05-.55,2.91-.36,3.79-.08,2.06.66,5.65,16.28,8.25,19.79l7.19-19.06c.53-1.4,3.75-1.22,4.69-.12l-8.97,26.16c-.42,1.24-4.59,1.8-5.2.27Z"/>
      <g>
        <path class="cls-5" d="M237.94,22.2c-.08,43.8-.12,65.7-.12,65.7l-.86.53-33.21,23.79-.77-25.72-57.24,42.55-57.85-42.53-.7,25.62-34.61-24.15.19-66.99,92.76,66.51L235.89,22.41c.87-.63,1.73-.31,2.05-.21Z"/>
        <polygon class="cls-3" points="146.97 137.12 172.28 155.14 52.66 238.64 52.59 107.76 87.49 131.76 88.04 178.35 146.97 137.12"/>
        <path class="cls-8" d="M183.7,165.86c7.46,3.48,12.47,8.58,19.42,12.86l.22-47.07,35.2-23.84-.16,131.18-78.39-55.52,23.72-17.62Z"/>
        <path class="cls-11" d="M236.95,88.43c.86-1.36,1.01-3.04,1.01-5.14l-.03-61.09c1.85,5.03,1.09,65.28.35,65.94-.28.25-.89.25-1.33.29Z"/>
      </g>
      <g>
        <path class="cls-19" d="M394.37,135.71l-.56-44.47-25.78,30.23c-2.49.75-7.04,2.13-9.08-.17l-26.04-29.44-.37,43.52c-5.8.62-11.39.65-17.25-.05l.07-63.62,20.45-.16,27.58,31.76,26.93-31.52,20.62-.13.02,63.69c-5.36.88-9.34.34-16.6.36Z"/>
        <path class="cls-19" d="M852.92,137.34c-14.54.04-28.66-1.02-42.41-5.79l4.89-12.39c11.12,3.98,22.56,4.8,34.53,4.74,5.78-.03,19.53.59,19.21-7.08-.65-15.35-62.93,5.96-57.74-29.5,3.43-23.45,55.47-16.22,71.27-12.31-.61,4.69-1.81,8.1-3.41,12.45-15.11-3.43-30.67-4.78-46.06-2.2-2.92.49-4.47,3.52-4.45,5.53.11,14.06,56.93-5.16,58.14,25,.73,18.19-19.13,21.5-33.99,21.54Z"/>
        <path class="cls-19" d="M703.37,72.19l-35.45,37.28-.47,26.21c-5.99.2-11.1.29-16.75-.23l-.47-26.04-34.78-37.41c7.56-.76,14.13-.48,21.27-.29l22.55,23.7,22.64-23.3c6.24-1.61,14.57-.34,21.46.07Z"/>
        <path class="cls-19" d="M573.84,135.18c-5.63,1.08-11.09.75-17.18.21l-.22-49.79-28.52-.27c-.77-4.51-.52-8.55-.21-13.69l75.11-.04c.51,4.57.44,8.79.05,13.72l-28.9.22-.13,49.64Z"/>
        <g>
          <path class="cls-19" d="M768.83,121.84h-41.23s-8.7,13.7-8.7,13.7c-6.18.21-11.73.65-18.72-.22l37.11-63.62,21.13-.21,38.05,63.72c-7.01.85-12.98.53-19.49.39l-8.15-13.77Z"/>
          <path class="cls-16" d="M761.36,108.62c-9.09.5-17.41.51-26.79.03l13.2-22.94,13.59,22.91Z"/>
        </g>
        <g>
          <path class="cls-19" d="M497.45,121.79l-41.42.07-8.15,13.51c-6.39.49-12.4.69-19.01-.2l37.12-63.62,20.85.03,38.22,63.75c-6.61.86-12.61.34-19.35.38l-8.26-13.92Z"/>
          <path class="cls-13" d="M489.7,108.38c-8.92,1.02-17.34.65-26.59.31l13.38-22.77,13.21,22.46Z"/>
        </g>
      </g>
    </g>
  </g>
</svg>