<?xml version="1.0" encoding="UTF-8"?>
<svg id="Layer_1" data-name="Layer 1" xmlns="http://www.w3.org/2000/svg" viewBox="0 0 833.63 223.84">
  <defs>
    <style>
      .cls-1 {
        fill: #838282;
      }

      .cls-2 {
        fill: #232323;
      }

      .cls-3 {
        fill: #8b8a8a;
      }

      .cls-4 {
        fill: #7a7a7a;
      }

      .cls-5 {
        fill: #848383;
      }

      .cls-6 {
        fill: #838382;
      }

      .cls-7 {
        fill: #faf9f9;
      }

      .cls-8 {
        fill: #858484;
      }

      .cls-9 {
        fill: #2d7abf;
      }

      .cls-10 {
        fill: #868585;
      }

      .cls-11 {
        fill: #242424;
      }

      .cls-12 {
        fill: #fafafa;
      }

      .cls-13 {
        fill: #7f7e7e;
      }

      .cls-14 {
        fill: #838383;
      }

      .cls-15 {
        fill: #fcfcfc;
      }

      .cls-16 {
        fill: #252525;
      }

      .cls-17 {
        fill: #262625;
      }
    </style>
  </defs>
  <path class="cls-5" d="M402.53,161.11c.49-1.23,2.83-.47,4.03.07l-9.32,26.05c-.45,1.25-2.57.89-3.48.74-1.18-.2-1.88-1.55-2.49-3.08l-6.7-16.84-7.73,19.01c-.58,1.43-4.85,1.65-5.42.04l-9.31-25.94c.68-1.11,4.21-1,4.72.26l7.7,19.01c3.71-6.51,4.46-13.72,8.04-19.18,4.75-7.24,9.93,17.65,12.16,19.41l7.78-19.55Z"/>
  <path class="cls-3" d="M441.05,175.55l-13.7.72c-.31,2.67-.26,5.14.02,7.83,4.07,1.07,20.37-2.71,15.68,3.87l-20.52.09.34-27.6,19.39-.07c1.32,0,1.75,3.38.64,3.66-5.22,1.33-10.32-.3-15.66.44-.45,2.57-.39,4.99.07,7.56,4.68.26,8.87-.52,13.67.15.76.11,1.1,3.28.07,3.33Z"/>
  <path class="cls-10" d="M541.95,186.76c-6.27,3.06-13.78,2.67-19.58-1.06-.94-.6,1.21-4.05,2.45-3.48,8.29,3.84,15.95,2.43,15.74-1.39-.33-6.04-17.06-2.92-17.39-12.13-.12-3.47,1.32-6.77,5.26-7.95,5.03-1.51,11.16-1.24,15.51,1.43-.21,8.51-5.56-.31-13.22,2.64-1.42.55-2.76,1.56-2.77,2.92-.04,5.77,16.56,2.67,17.64,11.26.35,2.82-.33,6.12-3.65,7.74Z"/>
  <path class="cls-5" d="M621.01,161.28c.13-1.23,3.99-.92,4.12.06.66,5.25.38,10.69.28,15.82-.14,7.35-5.48,11.46-12.31,11.46s-12.73-4.02-12.91-11.54c-.12-5.1-.37-10.4.27-15.59.18-1.5,4.06-1.27,4.09-.03l.37,15.69c.11,4.62,4.4,7.51,8.61,7.32,9.98-.45,6.45-13.1,7.49-23.19Z"/>
  <path class="cls-13" d="M574.25,186.94c-.02,1.83-4.28,1.69-4.31.36l-.47-22.43c-2.78-.69-5.44-.07-8.47-.48-1.7-.23-1.7-3.85-.13-3.91,7.74-.32,14.64-.1,22.43,0,1.05.01,1.27,3.14.47,3.43-2.98,1.07-6.1.03-9.27.88l-.25,22.15Z"/>
  <path class="cls-1" d="M334.61,172.29l-70.45,1.17c-.07-1.48.97-1.76,1.88-2.5l68.57,1.33Z"/>
  <path class="cls-6" d="M833.63,172.29l-64.48,1.16c-.05-1.48.98-1.75,1.88-2.5l62.59,1.34Z"/>
  <path class="cls-4" d="M693.46,186.92c.01,1.66-4.17,1.74-4.21.49-.32-9.1-.23-17.24-.01-26.34.03-1.07,3.93-1.07,4.01.2.51,8.68.16,16.76.22,25.65Z"/>
  <path class="cls-8" d="M483.04,173.76c.25,2.87,3.88,5.2,2.31,8.91-3.51,8.26-14.72,4.85-24.22,5.41l.07-27.62c8.88.42,18.14-2.46,22.29,4.03,2.05,3.2-.71,6.26-.45,9.28Z"/>
  <path class="cls-12" d="M480.55,179.91c.98,5.69-11.11,4.47-14.78,3.98-.5-2.73-.31-4.73-.13-7.54,4.25-.37,13.99-1.83,14.92,3.57Z"/>
  <path class="cls-7" d="M476.71,171.51c-3.18.72-7.62,1.3-10.25.14-1.49-.78-1.45-5.83-.09-6.66,3.35-.78,11.38-1.74,12.74,1.95.57,1.55.03,4.02-2.41,4.57Z"/>
  <path class="cls-14" d="M725.04,188.77c-8.91-.62-14.6-7.61-13.88-15.77.76-8.57,7.32-13.83,16.41-13.21,8.65.59,14.5,7.13,14.05,15.69-.42,8.12-7.43,13.93-16.59,13.29Z"/>
  <circle class="cls-15" cx="726.27" cy="174.31" r="10.31"/>
  <path class="cls-10" d="M671.66,174.61c-.08,7.29-4.82,12.64-11.85,13.34-5.16.52-10.23.16-15.65.14l.36-27.44c5.13-.49,9.97-.53,14.92-.04,7.33.73,12.31,6.21,12.22,13.99Z"/>
  <path class="cls-15" d="M661.46,183.18c-4.01,1.53-8.08.9-12.14.57l-.18-19.17c5.22-.35,10.35-.82,14.55,2.23,2.79,2.03,3.63,5.59,3.17,8.78-.39,2.74-1.77,6.21-5.4,7.59Z"/>
  <polygon class="cls-2" points="151.25 68.53 94.9 107.88 37.57 68.13 36.86 92.76 0 67.73 .22 0 94.43 64.8 188.29 .37 188.44 69.28 151.95 93.73 151.25 68.53"/>
  <polygon class="cls-11" points="95.64 120.32 122.65 139.72 .05 223.46 .03 88.71 37.12 113.39 37.54 160.09 95.64 120.32"/>
  <polygon class="cls-9" points="132.82 149.07 151.14 161.3 151.37 114.76 188.38 89.63 188.31 223.84 106.47 168.34 132.82 149.07"/>
  <path class="cls-16" d="M343.67,118.33l-.5-42.67-25.16,28.7c-2.6.91-7.59,2.18-9.76-.21l-25.74-28.47-.3,42.54-17.32-.1.03-62.87,20.09-.05,27.79,31.37,27.47-31.33,20.25-.06.14,62.95-16.98.2Z"/>
  <path class="cls-17" d="M818.8,118.07c-14.62,4.03-45.54,2.81-61.3-2.87.9-4.45,2.97-8.44,4.65-12.79,9.48,4.26,47.61,8.45,52.58.67,1.01-1.58.97-5.24-1.06-6.38-7.62-4.3-25.28-1.81-41.71-5.16-10.45-2.13-16.02-10.78-13.8-21.57,4.67-22.65,54.25-15.34,70.59-11.68l-3.21,13.1c-8-2.58-48.14-8-49.72,1.43-2.93,17.54,58.51-6.38,57.06,28.88-.32,7.76-5.94,14.13-14.08,16.38Z"/>
  <path class="cls-11" d="M522.9,118.07c-6.03.64-11.56.57-17.78.13l-.02-49.02-28.12-.19c-.59-4.64-.65-8.97.03-13.78l73.75-.03c.47,4.77.41,8.98-.15,13.66l-27.66.26-.05,48.97Z"/>
  <polygon class="cls-16" points="651.18 55.56 615.9 92.56 615.21 118.22 598.23 118.19 597.85 92.67 562.89 55.56 584.11 55.14 606.95 78.96 629.27 55.18 651.18 55.56"/>
  <path class="cls-11" d="M716.08,105.21l-41.19-.24-8.05,13.15c-6.32.64-12.18.46-18.93-.11l18.99-32.96,17.92-30.03,20.37-.05,37.89,63.06-19.14.41-7.87-13.25Z"/>
  <path class="cls-12" d="M708.33,92.6h-27.08s13.49-22.41,13.49-22.41c5.19,7.36,9.23,14.23,13.59,22.41Z"/>
  <path class="cls-11" d="M446.89,105.21l-41.55.05-7.61,12.99c-6.56.48-12.85.46-19.39-.25l37.08-63.08,20.52.27,37.43,62.52c-6.16,1.61-12.56.54-19.22.52l-7.26-13.01Z"/>
  <path class="cls-12" d="M439.13,92.5l-26.86.18c4.31-7.93,8.31-14.94,13.41-22.22l13.45,22.04Z"/>
</svg>